<?xml version="1.0" encoding="UTF-8" standalone="no"?>
<svg id="svg2" xmlns:rdf="http://www.w3.org/1999/02/22-rdf-syntax-ns#" xmlns="http://www.w3.org/2000/svg" height="1630pt" width="1222.4pt" version="1.1" xmlns:cc="http://creativecommons.org/ns#" xmlns:dc="http://purl.org/dc/elements/1.1/" viewBox="0 0 1222.3773 1630.0365">
<path id="rect4209" d="m920.18 0.00037859c-4.41-0.02854-8.79 1.555-12.15 5.2703-12.62 20.22-23.99 41.25-36.35 61.65-45.21-22.78-92.75-41.8-142.07-53.88-14.21-1.96-29.931 8.2103-31.711 22.82-5 13.64 5.0106 30.811 19.241 34.991 43.18 10.79 84.75 27.4 124.52 47.25-7.23 13.93-15.131 27.54-22.991 41.13-1.1756-0.51561-2.8465-2.057-4.1828-2.0828-0.6075-0.0117-1.1469 0.28906-1.5375 1.1422-70.54-34.39-148.49-54.939-227.09-56.289-19.82-0.13-39.65 0.35-59.45-0.2-213.45 7.2992-413.44 133.8-493.84 334.94-26.6 69.32-36.239 144.83-31.339 218.63 1.71 66.94 16.88 133.51 41.18 195.92 43.78 109.04 122.33 204.54 223.5 264.82-5.58 9.67-10.71 19.84-17.1 28.93-37.57-23.66-72.25-51.97-103.23-83.77-10.61-10.12-29.021-9.9797-39.781-0.1797-11.91 9.84-13.26 30.17-2.5797 41.62 34.67 35.89 74.45 66.549 115.65 94.409-12.99 25.24-28.75 49.15-41.97 74.3-5.69 17.74 18.711 30.86 30.781 17.35 14.84-23.91 27.769-49.449 43.309-72.709 93.83 51.41 200.39 82.04 307.84 81.93 6-0.09 12.009-0.039 18.039 0.041-0.06 46.66-0.03 93.32-0.02 139.98-0.28 25.29 0.4413 50.601-0.2687 75.891h-0.95c-32.52 0.31-65.041-0.091-97.561 0.189-5.35 0.4-12.499 1.09-16.209 5.05-24.36 8.98-23.79 40.75-22.05 61.95-3.99 22.81 12.879 48.65 37.059 48.9 96.32 0.06 192.65-0.018 288.98 0.042 15.95 0.23 30.641-12.121 35.211-26.961 5.31-15.86 2.2897-33.909 2.1297-50.439-0.26-20.64-18.92-38.771-39.47-38.631-28.65-0.01-57.29 0.02-85.92 0 0.24-25.02-0.2294-50.049 0.2406-75.069-0.43-49.94-0.1603-99.891-0.1203-149.83 95.26-15.22 186.73-53.1 265.89-108.13 145.43-100.33 245.66-262.71 271.6-437.37 15.21-103.23 5.4197-210.06-28.32-308.85-48.82-145.51-151.51-271.52-283.34-349.93 11.17-20.65 23.301-40.97 34.481-61.65 4.7149-12.492-6.7764-23.097-18.05-23.17zm-45.44 137.11c197.37 114.25 313.58 351.32 284.54 577.36-11.81 109.34-56.391 214.38-124.43 300.55-119.26 152.37-317 238.77-509.81 222.76-85.36-6.18-169.16-31.45-243.91-73.07 3.89-10.67 11.019-20.32 15.919-30.72 75.55 39.45 160.46 60.041 245.55 62.241 10.86-0.26 21.75-0.4209 32.62 0.03 88.88-2.07 177.11-26.14 255.07-68.8 109.38-59.32 197.54-156.64 245.55-271.44 36.44-86.54 51.63-182.2 42.7-275.69-18.02-162.06-118.37-310.14-256.59-394.43-3.99-2.66-8.0694-5.14-11.909-8 7.32-13.86 15.09-29.411 24.7-40.791z"/>
</svg>
